<?xml version="1.0" encoding="utf-8"?>
<!-- Generator: Adobe Illustrator 15.0.0, SVG Export Plug-In  -->
<!DOCTYPE svg PUBLIC "-//W3C//DTD SVG 1.1//EN" "http://www.w3.org/Graphics/SVG/1.1/DTD/svg11.dtd" [
	<!ENTITY ns_flows "http://ns.adobe.com/Flows/1.0/">
]>
<svg version="1.1"
	 xmlns="http://www.w3.org/2000/svg" xmlns:xlink="http://www.w3.org/1999/xlink" xmlns:a="http://ns.adobe.com/AdobeSVGViewerExtensions/3.0/"
	 x="0px" y="0px" width="850px" height="338px" viewBox="-55.768 -55.769 850 338"
	 overflow="visible" enable-background="new -55.768 -55.769 850 338" xml:space="preserve">
<defs>
</defs>
<path fill="#3F3E41" d="M198.217,59.86h4.194l27.349,59.145h-4.782l-7.466-16.443h-34.648l-7.466,16.443h-4.53L198.217,59.86z
	 M215.667,98.619L200.23,64.642l-15.52,33.977H215.667z"/>
<path fill="#3F3E41" d="M237.146,110.448l2.853-3.272c6.459,5.957,12.416,8.725,21.057,8.725c8.809,0,14.849-4.95,14.849-11.661
	v-0.168c0-6.208-3.271-9.815-16.611-12.5c-14.094-2.852-19.798-7.634-19.798-16.527v-0.167c0-8.725,7.97-15.437,18.876-15.437
	c8.557,0,14.178,2.349,20.134,7.131l-2.768,3.439c-5.537-4.782-11.074-6.627-17.534-6.627c-8.641,0-14.346,4.95-14.346,11.074v0.167
	c0,6.208,3.188,9.983,17.114,12.836c13.59,2.768,19.295,7.634,19.295,16.191v0.168c0,9.48-8.138,16.023-19.463,16.023
	C251.407,119.844,244.192,116.74,237.146,110.448z"/>
<path fill="#3F3E41" d="M292.014,89.81v-0.167c0-16.024,11.829-30.37,29.614-30.37s29.446,14.178,29.446,30.202v0.168
	c0,16.023-11.829,30.369-29.614,30.369C303.675,120.012,292.014,105.833,292.014,89.81z M346.544,89.81v-0.167
	c0-14.514-10.57-26.426-25.083-26.426c-14.514,0-24.917,11.745-24.917,26.258v0.168c0,14.513,10.571,26.426,25.084,26.426
	C336.142,116.069,346.544,104.324,346.544,89.81z"/>
<path fill="#3F3E41" d="M363.326,89.81v-0.167c0-16.611,12.416-30.37,29.362-30.37c10.487,0,16.779,3.859,22.819,9.396l-3.104,3.188
	c-5.117-4.95-10.989-8.641-19.799-8.641c-14.094,0-24.748,11.493-24.748,26.258v0.168c0,14.849,10.822,26.426,24.832,26.426
	c8.474,0,14.262-3.272,20.219-9.145l2.936,2.853c-6.208,6.124-12.919,10.235-23.321,10.235
	C375.742,120.012,363.326,106.673,363.326,89.81z"/>
<path fill="#3F3E41" d="M428.849,60.28h4.362v58.725h-4.362V60.28z"/>
<path fill="#3F3E41" d="M473.563,59.86h4.195l27.349,59.145h-4.782l-7.466-16.443H458.21l-7.466,16.443h-4.53L473.563,59.86z
	 M491.013,98.619l-15.437-33.977l-15.521,33.977H491.013z"/>
<path fill="#3F3E41" d="M511.57,89.81v-0.167c0-16.611,12.416-30.37,29.362-30.37c10.487,0,16.779,3.859,22.819,9.396l-3.104,3.188
	c-5.117-4.95-10.989-8.641-19.799-8.641c-14.094,0-24.748,11.493-24.748,26.258v0.168c0,14.849,10.822,26.426,24.832,26.426
	c8.474,0,14.262-3.272,20.219-9.145l2.936,2.853c-6.208,6.124-12.919,10.235-23.321,10.235
	C523.986,120.012,511.57,106.673,511.57,89.81z"/>
<path fill="#3F3E41" d="M576.505,60.28h41.779v4.027h-37.417v23.071h33.642v4.027h-33.642v23.574h37.836v4.027h-42.198V60.28z"/>
<path fill="#3F3E41" d="M175.901,160.957h21.309c12.919,0,21.812,6.627,21.812,17.953v0.167c0,12.333-10.654,18.708-22.903,18.708
	h-15.855v21.896h-4.363V160.957z M196.371,193.758c10.906,0,18.289-5.705,18.289-14.43v-0.168c0-9.312-7.215-14.178-17.785-14.178
	h-16.611v28.775H196.371z"/>
<path fill="#3F3E41" d="M231.944,160.957h24.665c7.215,0,13.003,2.265,16.527,5.788c2.769,2.769,4.446,6.712,4.446,10.906v0.168
	c0,9.815-7.298,15.437-17.198,16.778l19.379,25.084h-5.537l-18.708-24.329h-19.211v24.329h-4.363V160.957z M256.105,191.41
	c9.816,0,17.114-4.95,17.114-13.423v-0.168c0-7.886-6.208-12.836-16.862-12.836h-20.05v26.427H256.105z"/>
<path fill="#3F3E41" d="M290,190.487v-0.168c0-16.023,11.829-30.369,29.614-30.369s29.446,14.178,29.446,30.201v0.168
	c0,16.023-11.829,30.369-29.614,30.369C301.661,220.688,290,206.51,290,190.487z M344.53,190.487v-0.168
	c0-14.514-10.57-26.427-25.083-26.427c-14.514,0-24.917,11.745-24.917,26.259v0.168c0,14.514,10.571,26.426,25.084,26.426
	C334.128,216.745,344.53,205,344.53,190.487z"/>
<path fill="#3F3E41" d="M389.081,160.957h19.547c18.457,0,31.209,12.667,31.209,29.194v0.168c0,16.526-12.752,29.362-31.209,29.362
	h-19.547V160.957z M393.443,164.983v50.672h15.185c16.359,0,26.679-11.158,26.679-25.168v-0.168
	c0-13.927-10.319-25.336-26.679-25.336H393.443z"/>
<path fill="#3F3E41" d="M454.688,160.957h24.665c7.215,0,13.003,2.265,16.526,5.788c2.769,2.769,4.446,6.712,4.446,10.906v0.168
	c0,9.815-7.299,15.437-17.198,16.778l19.38,25.084h-5.537l-18.708-24.329H459.05v24.329h-4.362V160.957z M478.849,191.41
	c9.815,0,17.114-4.95,17.114-13.423v-0.168c0-7.886-6.208-12.836-16.862-12.836H459.05v26.427H478.849z"/>
<path fill="#3F3E41" d="M514.421,195.268v-34.312h4.362v33.893c0,13.842,7.467,21.812,19.883,21.812
	c11.913,0,19.547-7.215,19.547-21.393v-34.312h4.362v33.809c0,16.862-9.815,25.839-24.077,25.839
	C524.405,220.604,514.421,211.711,514.421,195.268z"/>
<path fill="#3F3E41" d="M579.106,160.957h21.309c12.92,0,21.812,6.627,21.812,17.953v0.167c0,12.333-10.654,18.708-22.902,18.708
	h-15.856v21.896h-4.362V160.957z M599.576,193.758c10.906,0,18.289-5.705,18.289-14.43v-0.168c0-9.312-7.215-14.178-17.785-14.178
	h-16.611v28.775H599.576z"/>
<path fill="#3F3E41" d="M651.592,160.537h4.195l27.349,59.145h-4.782l-7.466-16.443H636.24l-7.466,16.443h-4.53L651.592,160.537z
	 M669.042,199.295l-15.437-33.977l-15.521,33.977H669.042z"/>
<path fill="#3F3E41" d="M695.554,160.957h4.362v54.698h34.48v4.026h-38.843V160.957z"/>
<path fill="#0F72B5" d="M0,152.928c0,40.668,32.967,73.637,73.635,73.637c40.667,0,73.634-32.969,73.634-73.637
	c0-31.446-24.569-52.405-41.198-83.832C86.177,31.5,91.288,2.8,91.288,2.8c0.526-2.954-0.833-3.689-3.019-1.635
	c0,0-33.881,31.832-56.375,67.933C12.482,100.249,0,119.004,0,152.928z"/>
<path fill="#BD0C27" d="M73.635,221.912c-30.348,0-55.037-24.688-55.037-55.036c0-27.395,9.602-42.782,27.034-70.714l2.047-3.282
	c8.482-13.614,18.779-26.675,28.052-37.419c2.595,10.755,6.902,23.051,13.902,36.282c5.853,11.062,12.602,20.928,18.556,29.631
	c11.444,16.73,20.483,29.945,20.483,45.503C128.671,197.223,103.982,221.912,73.635,221.912z"/>
<path fill="#FFFFFF" d="M73.635,217.26c-20.092,0-36.438-16.347-36.438-36.438c0-22.069,7.587-34.228,24.213-60.868l2.049-3.287
	c1.902-3.053,3.962-6.171,6.18-9.354c1.128,2.368,2.314,4.728,3.555,7.072c6.342,11.988,13.404,22.312,19.634,31.418
	c10.016,14.645,17.245,25.212,17.245,35.019C110.073,200.914,93.727,217.26,73.635,217.26z"/>
</svg>
